# xmcd CD database file
#
# Track frame offsets:
#	165
#	43910
#	59295
#	74590
#	99655
#	119862
#	141127
#	167862
#	182102
#	197930
#	219455
#
# Disc length: 3319 seconds
#
# Revision: 0
# Processed by: cddbd v1.5.2PL0 Copyright (c) Steve Scherf et al.
# Submitted via: CDex 1.51
#
DISCID=b70cf50b
DTITLE=California Institute of the Arts - CalArts Jazz '94
DYEAR=1994
DGENRE=Jazz
TTITLE0=Blue Melvin
TTITLE1=Don't Move
TTITLE2=Confessin'
TTITLE3=May Whatever Be
TTITLE4=Blue Pinhead
TTITLE5=Mist
TTITLE6=Olvidarte
TTITLE7=Johnny Versus Sherman
TTITLE8=Rain Naomi
TTITLE9=Terry's Tune
TTITLE10=Dewey's Delight
EXTD=YEAR: 1994
EXTT0=
EXTT1=
EXTT2=
EXTT3=
EXTT4=
EXTT5=
EXTT6=
EXTT7=
EXTT8=
EXTT9=
EXTT10=
PLAYORDER=
